<?xml version="1.0" standalone="no"?>
<!DOCTYPE svg PUBLIC "-//W3C//DTD SVG 20010904//EN"
 "http://www.w3.org/TR/2001/REC-SVG-20010904/DTD/svg10.dtd">
<svg version="1.0" xmlns="http://www.w3.org/2000/svg"
 width="900.000000pt" height="900.000000pt" viewBox="0 0 900.000000 900.000000"
 preserveAspectRatio="xMidYMid meet">
<metadata>
Created by potrace 1.11, written by Peter Selinger 2001-2013
</metadata>
<g transform="translate(0.000000,900.000000) scale(0.100000,-0.100000)"
fill="#000000" stroke="none">
<path d="M4305 7723 c-840 -73 -1511 -604 -1765 -1398 -156 -488 -143 -1023
37 -1495 83 -219 170 -371 458 -800 307 -458 355 -562 380 -825 12 -123 18
-154 44 -208 90 -188 368 -349 736 -427 159 -34 378 -38 539 -10 404 68 710
238 809 448 24 52 31 83 38 177 20 270 88 422 379 845 279 406 411 646 494
900 85 260 111 448 103 753 -8 355 -68 611 -211 912 -342 717 -1046 1144
-1870 1133 -72 -1 -149 -3 -171 -5z m393 -344 c594 -64 1070 -388 1327 -904
147 -294 202 -567 192 -939 -8 -285 -45 -452 -158 -708 -70 -159 -184 -345
-419 -683 -112 -161 -194 -293 -251 -407 -80 -158 -139 -381 -139 -522 0 -43
-6 -70 -20 -93 -68 -113 -366 -225 -661 -249 -225 -18 -571 70 -734 187 -69
50 -78 69 -86 194 -19 272 -121 509 -376 877 -326 469 -444 678 -521 919 -149
465 -102 1029 120 1449 171 324 433 575 753 725 162 76 403 142 580 158 90 8
302 6 393 -4z"/>
<path d="M4125 7215 c-296 -77 -494 -192 -715 -414 -176 -177 -195 -205 -195
-287 0 -48 5 -69 21 -90 74 -100 201 -96 285 8 202 253 414 392 711 468 61 15
122 37 137 47 31 23 71 97 71 133 0 46 -42 113 -85 137 -52 29 -114 29 -230
-2z"/>
<path d="M4580 6749 c-179 -114 -320 -330 -381 -586 l-23 -92 -37 34 c-70 63
-154 69 -223 14 -38 -30 -51 -61 -75 -179 -31 -159 -41 -250 -41 -374 0 -137
21 -229 79 -344 35 -69 48 -85 88 -109 89 -52 185 -29 230 56 32 62 30 106
-12 184 -33 62 -68 208 -53 222 3 3 34 -11 69 -32 53 -32 72 -38 118 -38 67 1
113 24 144 75 19 30 23 55 28 185 6 142 33 330 48 340 4 2 13 -19 21 -48 25
-99 78 -206 200 -404 80 -130 83 -156 40 -281 -35 -102 -34 -132 6 -194 33
-52 75 -71 140 -66 94 8 147 69 193 224 14 48 21 99 21 156 0 136 -30 215
-150 393 -81 120 -101 158 -130 250 -29 91 -37 274 -18 400 27 176 -24 255
-164 255 -45 0 -63 -7 -118 -41z"/>
<path d="M3818 5050 c-41 -22 -77 -73 -85 -123 -4 -25 15 -97 76 -283 70 -217
85 -254 113 -281 43 -40 70 -54 126 -62 l45 -6 127 -516 c89 -365 133 -525
148 -547 26 -35 96 -72 138 -72 16 0 48 9 70 19 81 37 82 39 219 601 69 282
128 516 131 521 3 5 27 9 53 9 52 0 100 25 132 70 21 29 151 428 157 483 7 59
-6 104 -41 144 -57 65 -31 63 -734 63 -610 -1 -640 -2 -675 -20z m1035 -355
l-15 -45 -339 0 -339 0 -9 23 c-5 12 -11 32 -15 45 l-7 22 370 0 370 0 -16
-45z m-291 -390 c7 -7 -54 -255 -62 -255 -6 0 -60 223 -60 248 0 8 18 12 58
12 32 0 61 -2 64 -5z"/>
<path d="M3572 2653 c-18 -9 -45 -32 -60 -51 -37 -49 -38 -132 -2 -185 28 -41
109 -97 228 -156 427 -214 1098 -214 1524 0 151 76 217 124 240 176 36 82 14
159 -63 211 -29 20 -43 23 -94 20 -52 -4 -72 -12 -148 -60 -99 -63 -218 -110
-357 -141 -80 -18 -130 -21 -320 -21 -151 -1 -250 4 -300 13 -163 30 -314 88
-439 169 -56 37 -71 42 -120 42 -31 0 -71 -8 -89 -17z"/>
<path d="M3585 2216 c-67 -31 -95 -76 -95 -152 0 -67 31 -119 97 -161 85 -54
199 -109 288 -138 l80 -27 22 -72 c57 -186 227 -340 420 -381 86 -18 130 -18
218 0 100 21 186 67 266 142 78 74 129 152 154 233 24 80 23 79 105 106 92 31
228 101 295 152 84 63 106 141 65 223 -44 84 -153 106 -244 49 -211 -134 -377
-174 -736 -174 -365 -1 -544 40 -738 166 -72 47 -143 59 -197 34z m1066 -560
c-23 -28 -96 -56 -144 -56 -51 0 -109 20 -140 48 -18 16 -11 17 134 22 85 3
156 4 158 3 2 -2 -2 -9 -8 -17z"/>
</g>
</svg>
